<svg width="63" height="53" viewBox="0 0 63 53" fill="none" xmlns="http://www.w3.org/2000/svg">
<path opacity="0.5" fill-rule="evenodd" clip-rule="evenodd" d="M15.645 43.7386C20.1311 46.2567 25.4809 47.5001 31.4999 47.5001C38.6621 47.5001 44.8987 43.5372 48.1366 37.6845C51.6956 40.2591 55.0448 43.923 58.8358 49.6095C59.4485 50.5286 60.6902 50.7769 61.6093 50.1642C62.5284 49.5515 62.7767 48.3098 62.164 47.3907C57.9595 41.0839 54.0928 36.8863 49.719 33.9087C50.2271 32.1945 50.4999 30.3792 50.4999 28.5001C50.4999 22.177 47.4111 16.5753 42.6601 13.1215L39.9983 16.1381C43.9255 18.8431 46.4999 23.371 46.4999 28.5001C46.4999 29.6308 46.3748 30.7323 46.1377 31.7914C41.8812 29.6214 37.1477 28.3175 31.4338 27.0477C31.043 26.9609 30.6535 26.9948 30.3043 27.1247L29.0528 28.543C29.051 28.5508 29.0493 28.5585 29.0475 28.5663C28.8079 29.6445 29.4878 30.7129 30.566 30.9525C36.427 32.2549 40.8652 33.5207 44.7332 35.5689C42.2065 40.2892 37.2282 43.5001 31.4999 43.5001C26.4328 43.5001 22.0414 42.5399 18.3636 40.6576L15.645 43.7386ZM30.3034 13.5228C29.1843 13.5637 28.0974 13.6537 27.022 13.7427C21.5563 14.1953 16.387 14.6233 8.79682 8.4524C7.59543 7.47565 6.33339 6.33358 4.99992 5.00011C4.85487 6.81333 4.77032 8.56605 4.7455 10.2575C4.58696 21.0596 6.86448 29.3634 11.3793 34.9701L8.69973 38.0069C8.13474 37.3408 7.5966 36.6392 7.08619 35.9019C1.84343 28.329 -0.0231788 17.63 1.01266 4.68115C1.13705 3.12621 2.15402 1.78543 3.61786 1.24646C5.0817 0.707489 6.72533 1.06866 7.82835 2.17169C13.4251 7.76845 17.2419 9.33666 20.2476 9.79603C21.845 10.0402 23.4187 10.004 25.2619 9.87001C25.6714 9.84025 26.1089 9.80395 26.568 9.76584L26.5683 9.76582L26.5683 9.76581L26.5684 9.76581C28.0553 9.64241 29.7697 9.50011 31.4999 9.50011C32.257 9.50011 33.0038 9.5444 33.7378 9.63052L30.3034 13.5228Z" fill="#002531"/>
<line opacity="0.25" x1="47.7498" y1="0.661622" x2="2.74984" y2="51.6616" stroke="#002531" stroke-width="2"/>
</svg>
