<svg width="1439" height="24" viewBox="0 0 1439 24" fill="none" xmlns="http://www.w3.org/2000/svg">
<path fill-rule="evenodd" clip-rule="evenodd" d="M0 24V0H1432.69C1340.78 12.0691 1218.52 19 1097.4 19C978.595 19 865.671 16.9829 752.152 9.92878C637.43 2.79992 522.099 0.63327 399.481 0.63327C204.322 0.63327 51.844 14.5444 0 24Z" fill="#002531"/>
<path opacity="0.15" fill-rule="evenodd" clip-rule="evenodd" d="M6.2525 0C98.1682 12.2872 220.46 24 341.605 24C460.405 24 573.329 16.9829 686.848 9.92878C744.98 6.31644 803.269 2.69439 862.582 0H6.2525ZM1202.57 0C1317.35 6.16135 1402.76 17.3906 1439 24V0H1202.57Z" fill="#002531"/>
</svg>
